<svg width="41" height="40" viewBox="0 0 41 40" fill="none" xmlns="http://www.w3.org/2000/svg">
<path d="M20.0501 0C16.5915 0 13.3333 0.952381 10.4762 2.50627L26.6165 14.2356L30.3759 2.95739C27.3684 1.15288 23.8095 0 20.0501 0ZM6.26566 5.66416C2.45614 9.32331 0 14.386 0 20.1003C0 21.3534 0.100251 22.5063 0.300752 23.7093L15.7895 12.5815L6.21554 5.66416H6.26566ZM34.4862 6.31579L28.3709 25.1128H39.3484C39.7494 23.5088 40.1504 21.8546 40.1504 20.1003C40.1504 14.7368 37.9449 9.92481 34.4862 6.31579ZM10.8271 22.4561L2.05514 28.7218C4.81203 34.386 10.0752 38.6967 16.4912 39.8496L10.8271 22.4561ZM18.6466 30.1253L21.8045 40C28.4712 39.3985 34.1353 35.589 37.2932 30.1253H18.6466Z" fill="black"/>
</svg>
