<svg width="37" height="28" viewBox="0 0 37 28" fill="none" xmlns="http://www.w3.org/2000/svg">
<path d="M1.92017 0.00913836C1.32295 0.104693 0.788155 0.433577 0.433427 0.92344C0.0786983 1.4133 -0.066904 2.02402 0.0286506 2.62123C0.124205 3.21845 0.453089 3.75325 0.942953 4.10798C1.43282 4.46271 2.04353 4.60831 2.64075 4.51275H9.39617L9.80149 5.63866L11.648 11.2682L13.4945 16.8977C13.6746 17.4832 14.4402 18.0236 15.0257 18.0236H30.7883C31.4188 18.0236 32.1394 17.4832 32.3196 16.8977L35.9675 5.63866C36.1476 5.05319 35.8774 4.51275 35.2469 4.51275H15.2509L13.5395 1.27015C13.3572 0.897969 13.0758 0.583307 12.7261 0.360815C12.3765 0.138322 11.9723 0.0166302 11.5579 0.00913836L2.55067 0.00913836C2.41584 -0.00304612 2.28018 -0.00304612 2.14535 0.00913836C2.05536 0.00372915 1.96512 0.00372915 1.87513 0.00913836L1.92017 0.00913836ZM16.1516 22.5272C14.8906 22.5272 13.8998 23.518 13.8998 24.779C13.8998 26.04 14.8906 27.0308 16.1516 27.0308C17.4126 27.0308 18.4034 26.04 18.4034 24.779C18.4034 23.518 17.4126 22.5272 16.1516 22.5272ZM29.6624 22.5272C28.4014 22.5272 27.4106 23.518 27.4106 24.779C27.4106 26.04 28.4014 27.0308 29.6624 27.0308C30.9234 27.0308 31.9142 26.04 31.9142 24.779C31.9142 23.518 30.9234 22.5272 29.6624 22.5272Z" fill="black"/>
</svg>
